<svg xmlns="http://www.w3.org/2000/svg" width="250" height="150" viewBox="0 0 192.756 192.756"><g fill-rule="evenodd" clip-rule="evenodd"><path fill="#fff" d="M0 0h192.756v192.756H0V0z"/><path fill="#cf4044" d="M139.268 83.775h6.646v10.056h13.463V83.775h6.648v25.118h-6.648V97.812h-13.463v11.081h-6.646V83.775zm-124.645 0h6.649v10.056h13.461V83.775h6.69v25.118h-6.69V97.812H21.272v11.081h-6.649V83.775zm32.299 0h6.732v25.118h-6.732V83.775zm124.48 0h6.731v25.118h-6.731V83.775zm-115.286 0H82.26v4.186h-9.768v20.932h-6.608V87.961h-9.768v-4.186zm31.889 15.514l4.638-11.205 4.597 11.205h-9.235zm10.917 3.981l2.299 5.623h7.512L96.871 83.816h-8.414l-11.943 25.077h7.469l2.34-5.623h12.599zm30.043-10.958h6.814c-.084-4.556-4.023-8.906-13.176-8.988-6.812-.041-15.062 2.75-15.104 12.969-.041 10.137 8.373 13.297 15.104 13.133 6.197-.205 13.092-1.928 13.381-9.562l-6.855.041c-.205 4.762-4.021 5.705-6.525 5.746-2.586 0-7.881-.533-7.961-9.234-.082-8.208 4.76-9.357 7.961-9.357 3.16.04 6.32 1.518 6.361 5.252z"/></g></svg>